<svg width="30" height="30" viewBox="0 0 30 30" fill="none" xmlns="http://www.w3.org/2000/svg">
<path d="M16.9307 19.4537L16.9551 19.4961L17.0255 19.6205L17.0431 19.6492L17.4758 20.4051L19.3814 23.7483H22.4091L19.8175 19.209C18.5308 19.3649 17.3702 19.4325 16.9307 19.4537Z" fill="#FCE179"/>
<path d="M16.8192 14.138L12.6894 7L3 23.7484H4.24041C4.67739 22.9243 5.29418 22.1772 5.97015 21.5179C6.34 21.1599 6.72407 20.8302 7.11155 20.5289C7.11838 20.5221 7.12578 20.5181 7.1326 20.5113C7.42507 20.2831 7.71753 20.0695 8.0026 19.873C8.12265 19.7925 8.24214 19.7115 8.3622 19.6379C8.39065 19.6204 8.41853 19.6028 8.443 19.5886V19.5858C8.65808 19.4453 8.876 19.3122 9.0945 19.1859C9.61228 18.8806 10.1443 18.5968 10.6803 18.3301C10.6769 18.3301 10.6769 18.3301 10.6769 18.3301C10.6769 18.3301 10.6729 18.3318 10.6672 18.3346C10.6706 18.3329 10.674 18.3312 10.6774 18.3295H10.6809C11.1213 18.1086 11.5685 17.8979 12.0163 17.6979C13.0701 17.2352 14.1267 16.8319 15.1378 16.4807C16.0396 16.1686 16.9068 15.895 17.6994 15.66C19.2636 15.1898 20.5535 14.8534 21.2932 14.59C23.4388 13.8361 25.1196 12.8715 26.166 8.5922C26.1666 8.5922 22.8226 11.3495 16.8192 14.138ZM11.2874 16.684C10.6319 17.0347 10.0402 17.3994 9.50076 17.7608L12.6894 12.2473L14.4123 15.225C14.0567 15.379 13.6937 15.537 13.3238 15.6951C12.5876 16.0106 11.907 16.3402 11.2874 16.684Z" fill="#FCE179"/>
<path d="M17.8329 16.5519C17.1193 16.7583 16.3638 16.9828 15.5901 17.2242C15.4812 17.2593 15.3688 17.2944 15.2564 17.3294C14.2159 17.6585 13.1544 18.012 12.1316 18.3869C11.8642 18.4813 11.6076 18.5758 11.355 18.6742C10.5183 18.9999 9.77702 19.3432 9.1197 19.7141C9.00731 19.7769 8.89491 19.8402 8.78934 19.907C8.57818 20.0331 8.38177 20.1592 8.19162 20.2921C8.18083 20.2988 8.17062 20.3062 8.15983 20.313C7.93505 20.4668 7.6149 20.6806 7.35493 20.8734C7.35379 20.874 7.35322 20.8751 7.35209 20.8756L7.35436 20.8723C7.28057 20.9282 7.21018 20.9842 7.13639 21.0402C7.11539 21.0543 7.09438 21.0719 7.07679 21.0894C6.05051 21.9229 5.28761 22.8543 4.72168 23.7472H5.4386H5.68836C5.68836 23.7478 5.68893 23.7484 5.68893 23.7484H5.74853C5.74853 23.7478 5.74909 23.7472 5.74909 23.7472H5.79678C5.87738 23.6494 5.96196 23.5544 6.05675 23.46C6.76686 22.7316 7.82833 22.0524 9.40635 21.6883H9.40976C9.51874 21.6673 9.62773 21.643 9.73331 21.6215C11.0763 21.3693 12.1162 21.2223 12.9563 21.1035C15.0089 20.8304 14.9896 20.8723 16.1527 19.8357C16.2123 19.7865 16.2724 19.7305 16.332 19.6745C16.332 19.6745 16.2372 19.6779 16.0647 19.6853C15.3932 19.7237 14.3936 19.7277 12.3058 20.1863C11.2336 20.421 10.1017 20.7394 9.04363 21.181C8.21262 21.5197 7.4344 21.9286 6.76402 22.4313C6.77083 22.4223 6.77878 22.4138 6.78786 22.4047C7.45937 21.7431 8.40107 21.0883 9.70549 20.542C10.1062 20.3741 10.5422 20.2197 11.0093 20.076C11.7019 19.8589 12.3416 19.6734 12.9353 19.5156C14.183 19.1758 15.22 18.9411 16.0846 18.7663C16.2077 18.742 16.3269 18.7171 16.4393 18.6962C17.4554 18.5034 18.2217 18.388 18.8222 18.2693C18.9454 18.245 19.0612 18.2201 19.1702 18.1924C19.7537 18.0595 20.1613 17.8983 20.499 17.6003C21.5923 16.6305 22.5096 15.3734 22.5658 15.2959C22.4636 15.3168 20.6148 15.7619 18.1683 16.4552C18.061 16.4857 17.9452 16.5208 17.8329 16.5519Z" fill="#FCE179"/>
</svg>
