<svg width="100" height="20" viewBox="0 0 100 20" fill="none" xmlns="http://www.w3.org/2000/svg">
<g clip-path="url(#clip0_116_173)">
<path d="M16.2529 14.5294L16.2814 14.5789L16.3636 14.724L16.3841 14.7574L16.8889 15.6394L19.1122 19.5397H22.6445L19.6209 14.2439C18.1198 14.4258 16.7657 14.5047 16.2529 14.5294Z" fill="#FCE179"/>
<path d="M16.1224 8.32766L11.3043 0L0 19.5398H1.44714C1.95696 18.5783 2.67655 17.7067 3.46517 16.9375C3.89666 16.5199 4.34474 16.1353 4.79681 15.7837C4.80478 15.7758 4.8134 15.7711 4.82137 15.7632C5.16258 15.4969 5.50378 15.2478 5.83636 15.0185C5.97643 14.9246 6.11583 14.8301 6.2559 14.7442C6.28909 14.7237 6.32162 14.7033 6.35016 14.6867V14.6834C6.60109 14.5196 6.85534 14.3643 7.11024 14.2169C7.71433 13.8607 8.335 13.5296 8.96033 13.2184C8.95634 13.2184 8.95635 13.2184 8.95635 13.2184C8.95635 13.2184 8.9517 13.2204 8.94506 13.2237C8.94904 13.2217 8.95303 13.2197 8.95701 13.2177H8.96099C9.47479 12.96 9.99656 12.7142 10.519 12.4809C11.7484 11.941 12.9811 11.4705 14.1607 11.0608C15.2129 10.6967 16.2246 10.3775 17.1493 10.1033C18.9741 9.55481 20.479 9.16228 21.342 8.855C23.8453 7.97544 25.8062 6.85007 27.027 1.85757C27.0277 1.85757 23.1264 5.07444 16.1224 8.32766ZM9.66863 11.2981C8.9039 11.7071 8.21352 12.1327 7.58422 12.5543L11.3043 6.12184L13.3144 9.59578C12.8995 9.77552 12.476 9.95989 12.0445 10.1443C11.1855 10.5123 10.3915 10.8969 9.66863 11.2981Z" fill="#FCE179"/>
<path d="M17.3052 11.144C16.4727 11.3848 15.5913 11.6467 14.6887 11.9284C14.5615 11.9693 14.4304 12.0103 14.2993 12.0512C13.0854 12.4351 11.847 12.8475 10.6536 13.2849C10.3417 13.3951 10.0424 13.5052 9.7477 13.62C8.77156 14 7.90668 14.4005 7.13981 14.8333C7.00869 14.9065 6.87756 14.9804 6.75439 15.0583C6.50803 15.2054 6.2789 15.3525 6.05705 15.5076C6.04447 15.5155 6.03255 15.5241 6.01996 15.532C5.75772 15.7114 5.38422 15.9608 5.08091 16.1858C5.07959 16.1864 5.07892 16.1878 5.0776 16.1884L5.08025 16.1845C4.99416 16.2498 4.91204 16.3151 4.82595 16.3804C4.80145 16.3969 4.77694 16.4173 4.75641 16.4378C3.55909 17.4103 2.66904 18.4969 2.00879 19.5386H2.8452H3.13658C3.13658 19.5393 3.13724 19.5399 3.13724 19.5399H3.20678C3.20678 19.5393 3.20744 19.5386 3.20744 19.5386H3.26307C3.35711 19.4245 3.45578 19.3136 3.56637 19.2035C4.39483 18.3537 5.63322 17.5613 7.47424 17.1365H7.47821C7.60536 17.1121 7.73251 17.0837 7.85569 17.0586C9.42254 16.7644 10.6358 16.5928 11.6159 16.4543C14.0105 16.1356 13.988 16.1845 15.3449 14.9751C15.4145 14.9177 15.4847 14.8524 15.5542 14.7871C15.5542 14.7871 15.4436 14.7911 15.2423 14.7997C14.4589 14.8445 13.2927 14.8491 10.857 15.3842C9.60598 15.658 8.28548 16.0294 7.05107 16.5447C6.08155 16.9399 5.17362 17.4169 4.39152 18.0034C4.39947 17.9928 4.40874 17.9829 4.41934 17.9724C5.20276 17.2005 6.30142 16.4365 7.82324 15.7992C8.29078 15.6032 8.79938 15.4231 9.3444 15.2555C10.1523 15.0022 10.8987 14.7858 11.5914 14.6017C13.047 14.2052 14.2569 13.9314 15.2655 13.7276C15.4092 13.6992 15.5482 13.6702 15.6794 13.6458C16.8648 13.4208 17.7588 13.2862 18.4594 13.1477C18.6031 13.1193 18.7382 13.0903 18.8654 13.0579C19.5462 12.9029 20.0217 12.7149 20.4157 12.3672C21.6912 11.2357 22.7613 9.7691 22.8269 9.67871C22.7077 9.70312 20.5508 10.2223 17.6965 11.0312C17.5714 11.0668 17.4363 11.1077 17.3052 11.144Z" fill="#FCE179"/>
<path d="M41.6507 2.16211C43.6877 2.16211 45.3338 3.80819 45.3338 5.82464V17.6147H42.7824V11.1538H34.984V17.6147H32.4326V5.82464C32.4326 3.80819 34.0787 2.16211 36.1157 2.16211H41.6507ZM34.984 8.60241H42.7824V5.82464C42.7824 5.20736 42.268 4.71354 41.6507 4.71354H36.1157C35.4984 4.71354 34.984 5.20736 34.984 5.82464V8.60241ZM55.7648 12.4295H58.3162V13.9316C58.3162 15.9686 56.6702 17.6147 54.6331 17.6147H50.3122C48.2751 17.6147 46.629 15.9686 46.629 13.9316V2.16211H49.1805V13.9316C49.1805 14.5489 49.6949 15.0633 50.3122 15.0633H54.6331C55.2504 15.0633 55.7648 14.5489 55.7648 13.9316V12.4295ZM69.1794 2.16211H71.7308V7.4913C71.7308 9.50775 70.0847 11.1538 68.0477 11.1538H66.5662V17.6147H63.9942V11.1538H62.5127C60.4757 11.1538 58.8296 9.50775 58.8296 7.4913V2.16211H61.381V7.4913C61.381 8.10858 61.8954 8.60241 62.5127 8.60241H68.0477C68.665 8.60241 69.1794 8.10858 69.1794 7.4913V2.16211ZM81.9972 2.16211C84.0342 2.16211 85.6803 3.80819 85.6803 5.82464V17.6147H83.1289V11.1538H75.3306V17.6147H72.7791V5.82464C72.7791 3.80819 74.4252 2.16211 76.4622 2.16211H81.9972ZM75.3306 8.60241H83.1289V5.82464C83.1289 5.20736 82.6145 4.71354 81.9972 4.71354H76.4622C75.845 4.71354 75.3306 5.20736 75.3306 5.82464V8.60241ZM100 17.6147H97.4488V5.82464C97.4488 5.20736 96.9344 4.71354 96.3171 4.71354H89.6504V17.6147H87.099V2.16211H96.3171C98.3541 2.16211 100 3.80819 100 5.82464V17.6147Z" fill="#FCE179"/>
</g>
<defs>
<clipPath id="clip0_116_173">
<rect width="100" height="19.7224" fill="white"/>
</clipPath>
</defs>
</svg>
