<svg width="40" height="40" viewBox="0 0 40 40" fill="none" xmlns="http://www.w3.org/2000/svg">
<g clip-path="url(#clip0_123_225)">
<path d="M20.4018 38C20.4018 38 25.0798 34.9591 20.7737 28.5988C18.7636 25.6297 15.469 22.4551 15.8459 19.312C15.4185 19.6744 15.0302 20.0749 14.8436 20.3187C14.1622 21.2088 13.6682 22.1772 13.4151 23.1765C13.1216 24.335 13.1982 25.5546 13.8792 26.741C14.5113 27.842 15.6088 28.8351 16.641 29.834C19.1123 32.2248 21.2887 34.7659 20.6254 37.4698C20.5901 37.6151 20.5728 37.8888 20.4018 38Z" fill="#FCE179"/>
<path d="M23.4776 32.0049C23.4776 32.0049 30.9886 27.1226 24.0743 16.9105C20.8472 12.1436 15.5577 7.04636 16.1633 2C15.5884 2.48999 14.8535 3.22496 14.5541 3.61646C13.46 5.04538 12.667 6.60028 12.2606 8.20484C11.7889 10.0651 11.9123 12.023 13.006 13.9279C14.0209 15.6958 15.783 17.2901 17.4406 18.8943C21.4081 22.7333 24.9027 26.8124 23.8377 31.1546C23.78 31.3872 23.7518 31.8268 23.4776 32.0049Z" fill="#FCE179"/>
</g>
<defs>
<clipPath id="clip0_123_225">
<rect width="15" height="36" fill="white" transform="translate(12 2)"/>
</clipPath>
</defs>
</svg>
