<svg width="75" height="75" viewBox="0 0 75 75" fill="none" xmlns="http://www.w3.org/2000/svg">
<g clip-path="url(#clip0_168_43)">
<path d="M75 58.0874C73.9085 58.5002 72.7036 58.4993 71.6126 58.0848C70.5217 57.6703 69.6202 56.8709 69.0782 55.8374L58.2969 40.928L56.7344 38.8436L44.225 55.8561C43.7156 56.8463 42.863 57.617 41.8266 58.0242C40.7902 58.4314 39.641 58.4472 38.5938 58.0686L54.7125 36.4436L39.7188 16.9093C40.7969 16.5207 41.976 16.5156 43.0574 16.8947C44.1389 17.2738 45.0567 18.0139 45.6563 18.9905L56.8313 34.0843L68.0688 19.053C68.5821 18.0805 69.435 17.3305 70.4651 16.9456C71.4953 16.5607 72.631 16.5678 73.6563 16.9655L67.8375 24.6874L59.9563 34.9468C59.7374 35.142 59.5623 35.3813 59.4424 35.649C59.3224 35.9166 59.2605 36.2066 59.2605 36.4999C59.2605 36.7932 59.3224 37.0832 59.4424 37.3508C59.5623 37.6185 59.7374 37.8578 59.9563 38.053L74.9688 58.0905L75 58.0874ZM0.00628749 36.1749L1.31879 29.6905C4.92504 16.8686 19.625 11.5343 29.7375 19.4718C35.6594 24.1249 37.1375 30.7124 36.8469 38.1374H3.48754C2.94691 51.3968 12.5157 59.403 24.75 55.3124C26.7333 54.5985 28.5086 53.4038 29.9168 51.8352C31.325 50.2667 32.3221 48.3734 32.8188 46.3249C33.4657 44.2436 34.5313 43.8874 36.4875 44.4874C36.1615 47.0261 35.2641 49.4578 33.8628 51.5996C32.4614 53.7415 30.5926 55.5376 28.3969 56.853C24.7701 58.8369 20.6089 59.6232 16.5082 59.0995C12.4076 58.5758 8.57753 56.769 5.56566 53.9374C2.58763 50.5855 0.787776 46.3514 0.440662 41.8811C0.440662 41.1468 0.190662 40.4593 0.0219125 39.7999C0.00670008 38.5927 -0.000591741 37.3853 3.74884e-05 36.178L0.00628749 36.1749ZM3.52816 35.2811H33.6969C33.5094 25.6686 27.4438 18.8499 19.3532 18.7874C10.3469 18.6624 3.90316 25.3311 3.50629 35.2374L3.52816 35.2811Z" fill="white"/>
</g>
<defs>
<clipPath id="clip0_168_43">
<rect width="75" height="75" fill="white"/>
</clipPath>
</defs>
</svg>
