<svg width="75" height="75" viewBox="0 0 75 75" fill="none" xmlns="http://www.w3.org/2000/svg">
<path d="M69.0748 34.5776L40.4298 5.92529C39.6368 5.13302 38.5617 4.68799 37.4408 4.68799C36.3198 4.68799 35.2448 5.13302 34.4518 5.92529L28.4957 11.877L36.0426 19.4238C40.0065 18.085 43.7594 21.8804 42.3986 25.8223L49.673 33.0967C54.6871 31.3682 58.6349 37.6377 54.8688 41.4009C50.9884 45.2812 44.5841 40.9805 46.6656 35.9312L39.8761 29.1504V46.9995C43.5821 48.8364 43.1368 53.1299 41.2062 55.0562C40.2629 55.9989 38.9839 56.5285 37.6503 56.5285C36.3167 56.5285 35.0376 55.9989 34.0944 55.0562C31.5206 52.478 32.4728 48.1846 35.7423 46.853V28.8354C32.6954 27.5889 32.1388 24.3325 33.0118 22.2437L25.5719 14.7949L5.92541 34.4443C5.13278 35.2371 4.6875 36.3123 4.6875 37.4333C4.6875 38.5544 5.13278 39.6296 5.92541 40.4224L34.5792 69.0747C35.3719 69.8669 36.4468 70.3119 37.5675 70.3119C38.6882 70.3119 39.763 69.8669 40.5558 69.0747L69.0748 40.5557C69.8674 39.7629 70.3127 38.6877 70.3127 37.5666C70.3127 36.4456 69.8674 35.3704 69.0748 34.5776Z" fill="#F34F29"/>
</svg>
