<svg width="75" height="75" viewBox="0 0 75 75" fill="none" xmlns="http://www.w3.org/2000/svg">
<g clip-path="url(#clip0_170_76)">
<path d="M0 0H75V75H0V0ZM68.8563 57.1125C68.3094 53.6906 66.0813 50.8156 59.4719 48.1344C57.1719 47.0562 54.6156 46.3062 53.8562 44.5719C53.5719 43.5406 53.5281 42.9781 53.7125 42.3687C54.1812 40.35 56.5719 39.7437 58.4469 40.3062C59.6656 40.6812 60.7906 41.6188 61.4969 43.1188C64.7281 41.0063 64.7281 41.0063 66.9813 39.6031C66.1375 38.2906 65.7187 37.725 65.15 37.1656C63.1812 34.9625 60.5594 33.8375 56.2937 33.9344L54.0906 34.2125C51.9781 34.7281 49.9656 35.8531 48.7469 37.3531C45.1844 41.3875 46.2125 48.4187 50.525 51.325C54.7906 54.5125 61.0281 55.2125 61.825 58.2156C62.575 61.8719 59.1063 63.0437 55.6813 62.6219C53.1469 62.0594 51.7437 60.7906 50.1969 58.4469L44.4781 61.7312C45.1344 63.2312 45.8844 63.8844 47.0094 65.1969C52.4469 70.6844 66.0406 70.4031 68.4812 62.0594C68.5719 61.7781 69.2313 59.8562 68.7125 56.9031L68.8563 57.1125ZM40.7844 34.4719H33.7594C33.7594 40.5281 33.7312 46.5469 33.7312 52.6125C33.7312 56.4625 33.9281 59.9969 33.3 61.0844C32.2688 63.2375 29.6125 62.9625 28.4063 62.5844C27.1688 61.9719 26.5406 61.1281 25.8125 59.9125C25.6156 59.5844 25.4688 59.3 25.4156 59.3L19.7125 62.8156C20.6656 64.7844 22.0562 66.4781 23.85 67.5563C26.5219 69.15 30.1125 69.6656 33.8719 68.8219C36.3187 68.1156 38.4281 66.6625 39.5312 64.4125C41.125 61.5062 40.7875 57.9438 40.7719 53.9563C40.8094 47.5375 40.7719 41.1156 40.7719 34.6469L40.7844 34.4719Z" fill="#F7DF1E"/>
</g>
<defs>
<clipPath id="clip0_170_76">
<rect width="75" height="75" fill="white"/>
</clipPath>
</defs>
</svg>
