<svg width="75" height="75" viewBox="0 0 75 75" fill="none" xmlns="http://www.w3.org/2000/svg">
<path d="M74.6144 37.5C74.6144 16.7894 57.9115 0 37.3077 0C16.7029 0 0 16.7894 0 37.5C0 58.2101 16.7029 75 37.3072 75C57.9115 75 74.6144 58.2101 74.6144 37.5Z" fill="#339AF0"/>
<path d="M30.3603 19.8077C30.0259 20.262 29.8329 20.8047 29.8054 21.3681C29.7779 21.9315 29.9171 22.4905 30.2057 22.9752C30.3971 23.2956 30.6501 23.5749 30.9501 23.7969C35.2955 27.0344 37.7903 31.9844 37.7903 37.3798C37.7903 42.7752 35.2955 47.7252 30.9501 50.9626C30.6505 51.1848 30.3978 51.464 30.2066 51.7844C29.8186 52.4335 29.7038 53.21 29.8873 53.9437C29.9779 54.3072 30.1385 54.6491 30.3603 54.9496C30.5816 55.2501 30.8602 55.5039 31.18 55.6964C31.4998 55.8889 31.8545 56.0163 32.2237 56.0712C32.5929 56.1261 32.9694 56.1075 33.3314 56.0164C33.6933 55.9253 34.0337 55.7635 34.333 55.5403C35.6713 54.5426 36.8974 53.4025 37.9896 52.14H46.0385C47.6057 52.14 48.8793 50.8646 48.8793 49.29C48.8793 47.7155 47.6084 46.44 46.0385 46.44H41.596C42.8378 43.5814 43.4755 40.497 43.4692 37.3802C43.4758 34.2632 42.8382 31.1785 41.5965 28.3195H46.0412C47.6084 28.3195 48.8816 27.0445 48.8816 25.4695C48.8816 23.8949 47.6107 22.6199 46.0412 22.6199H37.9942C36.9014 21.3562 35.6746 20.215 34.3353 19.2164C34.0364 18.9936 33.6965 18.832 33.335 18.741C32.9735 18.6499 32.5976 18.6312 32.2288 18.6859C31.4829 18.798 30.8118 19.2014 30.363 19.8077H30.3603Z" fill="white"/>
<path fill-rule="evenodd" clip-rule="evenodd" d="M25.8755 36.5297C25.8619 35.9625 25.9608 35.3983 26.1663 34.8696C26.371 34.3422 26.6787 33.861 27.0714 33.4538C27.4624 33.0483 27.9308 32.7255 28.449 32.5045C28.9656 32.2844 29.5215 32.1709 30.0831 32.1709C30.6447 32.1709 31.2005 32.2844 31.7172 32.5045C32.2355 32.7255 32.7041 33.0483 33.0953 33.4538C33.488 33.861 33.7956 34.3422 34.0003 34.8696C34.2056 35.3984 34.3041 35.9626 34.2902 36.5297C34.2647 37.6377 33.8103 38.6925 33.0226 39.4722C32.2401 40.2465 31.1841 40.6812 30.0833 40.6823C28.9822 40.6815 27.9258 40.2467 27.1431 39.4722C26.3554 38.6925 25.901 37.6377 25.8755 36.5297Z" fill="white"/>
</svg>
