<svg width="71" height="75" viewBox="0 0 71 75" fill="none" xmlns="http://www.w3.org/2000/svg">
<g clip-path="url(#clip0_168_45)">
<path fill-rule="evenodd" clip-rule="evenodd" d="M59.2637 49.172C59.5607 49.0014 59.8077 48.7557 59.9798 48.4595C60.1519 48.1633 60.2431 47.8271 60.2441 47.4845L60.2793 36.1818C60.2804 35.8392 60.3716 35.503 60.5436 35.2068C60.7157 34.9106 60.9627 34.6649 61.2598 34.4943L67.3867 30.9748C67.6837 30.8042 68.0202 30.7148 68.3627 30.7153C68.7051 30.7159 69.0414 30.8065 69.3377 30.978C69.6341 31.1496 69.8802 31.396 70.0513 31.6926C70.2224 31.9893 70.3124 32.3257 70.3125 32.6681V53.2169C70.3124 53.5605 70.2218 53.898 70.0496 54.1953C69.8775 54.4926 69.63 54.7392 69.332 54.9103L46.209 68.1916C45.9136 68.3611 45.5791 68.4505 45.2385 68.4508C44.898 68.4512 44.5633 68.3625 44.2676 68.1935L26.1211 57.8146C25.8222 57.6438 25.5737 57.3971 25.4008 57.0994C25.2279 56.8017 25.1368 56.4636 25.1367 56.1193V45.758C25.1367 45.7462 25.1504 45.7384 25.1621 45.7443C25.1719 45.7501 25.1856 45.7443 25.1856 45.7306V45.7189C25.1856 45.7111 25.1895 45.7033 25.1973 45.6994L40.1426 37.1134C40.1563 37.1056 40.1504 37.0841 40.1348 37.0841C40.1306 37.0841 40.1266 37.0825 40.1237 37.0796C40.1208 37.0766 40.1191 37.0726 40.1191 37.0685L40.1484 26.9103C40.1498 26.5668 40.0606 26.229 39.8897 25.931C39.7188 25.633 39.4724 25.3854 39.1752 25.213C38.8781 25.0407 38.5408 24.9497 38.1973 24.9494C37.8538 24.9491 37.5162 25.0393 37.2188 25.2111L26.1113 31.6115C25.8149 31.7822 25.4788 31.872 25.1367 31.872C24.7946 31.872 24.4586 31.7822 24.1621 31.6115L13.0195 25.1955C12.7227 25.0245 12.3861 24.9347 12.0435 24.9349C11.701 24.9352 11.3645 25.0255 11.0679 25.1969C10.7713 25.3682 10.525 25.6146 10.3536 25.9112C10.1823 26.2078 10.092 26.5443 10.0918 26.8869V45.2462C10.092 45.5884 10.0024 45.9247 9.83175 46.2213C9.66115 46.5179 9.4156 46.7646 9.11971 46.9364C8.82381 47.1083 8.48795 47.1994 8.14576 47.2007C7.80357 47.2019 7.46706 47.1132 7.16992 46.9435L0.986331 43.4083C0.686821 43.2373 0.437961 42.9899 0.265058 42.6915C0.0921556 42.393 0.00137754 42.0541 0.00195587 41.7091L0.0566434 9.61929C0.0573877 9.27718 0.147975 8.94128 0.31934 8.64519C0.490704 8.3491 0.736833 8.10321 1.03309 7.93214C1.32935 7.76107 1.66535 7.67082 2.00745 7.67041C2.34955 7.67001 2.68576 7.75946 2.98242 7.92983L24.1641 20.0958C24.46 20.2658 24.7954 20.3553 25.1367 20.3553C25.478 20.3553 25.8134 20.2658 26.1094 20.0958L47.2852 7.92983C47.5822 7.75922 47.919 7.66975 48.2616 7.67042C48.6042 7.67108 48.9406 7.76185 49.237 7.93361C49.5335 8.10538 49.7795 8.35209 49.9504 8.649C50.1214 8.9459 50.2112 9.28255 50.2109 9.62515V41.7228C50.2111 42.0662 50.1207 42.4035 49.9489 42.7008C49.7771 42.9981 49.53 43.2448 49.2324 43.4162L38.1426 49.8029C37.8447 49.9746 37.5974 50.2219 37.4258 50.5198C37.2541 50.8177 37.1641 51.1557 37.1649 51.4995C37.1657 51.8433 37.2572 52.1808 37.4303 52.4779C37.6033 52.775 37.8517 53.0212 38.1504 53.1916L44.2676 56.674C44.5632 56.8423 44.8977 56.9304 45.2378 56.9298C45.578 56.9291 45.9121 56.8396 46.207 56.6701L59.2637 49.172ZM60.5469 20.3791C60.5471 20.7245 60.639 21.0636 60.8131 21.3619C60.9872 21.6603 61.2373 21.9071 61.5379 22.0772C61.8385 22.2474 62.1788 22.3348 62.5242 22.3305C62.8696 22.3262 63.2076 22.2304 63.5039 22.0529L69.3633 18.5373C69.6525 18.3639 69.892 18.1187 70.0583 17.8253C70.2247 17.532 70.3122 17.2006 70.3125 16.8634V9.69936C70.3119 9.35413 70.2198 9.01522 70.0455 8.71717C69.8713 8.41912 69.6212 8.17258 69.3206 8.00267C69.0201 7.83275 68.6799 7.74553 68.3347 7.74989C67.9895 7.75425 67.6516 7.85004 67.3555 8.02749L61.4961 11.5431C61.2068 11.7164 60.9674 11.9617 60.801 12.255C60.6347 12.5483 60.5471 12.8797 60.5469 13.2169V20.3791Z" fill="#007FFF"/>
</g>
<defs>
<clipPath id="clip0_168_45">
<rect width="70.3125" height="75" fill="white"/>
</clipPath>
</defs>
</svg>
