<svg width="36" height="75" viewBox="0 0 36 75" fill="none" xmlns="http://www.w3.org/2000/svg">
<path d="M24.0887 8.36253C20.9072 4.62638 18.1927 0.831875 17.6381 0.0437829C17.5797 -0.0145943 17.4921 -0.0145943 17.4338 0.0437829C16.8792 0.831875 14.1646 4.62638 11.0123 8.36253C-16.0455 42.8342 15.2738 66.0684 15.2738 66.0684L15.5365 66.2435C15.77 69.8336 16.3538 75 16.3538 75H17.5213H18.6889C18.6889 75 19.2726 69.8628 19.5061 66.2435L19.7688 66.0392C19.798 66.0684 51.1465 42.8342 24.0887 8.36253ZM17.5505 65.5722C17.5505 65.5722 16.1495 64.3753 15.77 63.7623V63.704L17.4629 26.1677C17.4629 26.0509 17.6381 26.0509 17.6381 26.1677L19.331 63.704V63.7623C18.9515 64.3753 17.5505 65.5722 17.5505 65.5722Z" fill="#00684A"/>
</svg>
