<svg width="75" height="75" viewBox="0 0 75 75" fill="none" xmlns="http://www.w3.org/2000/svg">
<g clip-path="url(#clip0_168_41)">
<path d="M36.1634 0C35.6125 0 35.1953 0.0040625 35.0434 0.0209375C34.8822 0.0375 34.3687 0.0865625 33.9072 0.123438C23.2547 1.08375 13.2769 6.83063 6.95719 15.6634C3.43813 20.575 1.1875 26.1456 0.3375 32.0469C0.036875 34.1063 0 34.7147 0 37.5075C0 40.3003 0.0375 40.9087 0.3375 42.9688C2.375 57.05 12.3972 68.8809 25.9897 73.2641C28.4238 74.0487 30.9897 74.5837 33.9075 74.9062C35.0437 75.0312 39.9556 75.0312 41.0919 74.9062C46.1284 74.3491 50.3956 73.1031 54.6034 70.9553C55.2488 70.6253 55.3734 70.5375 55.2856 70.4638C55.2269 70.4203 52.4772 66.7331 49.1784 62.2763L43.1816 54.1762L35.6669 43.0566C31.5322 36.9428 28.1303 31.9441 28.1009 31.9441C28.0716 31.9359 28.0425 36.8775 28.0275 42.9097C28.0066 53.4728 27.9984 53.8978 27.8663 54.1472C27.6756 54.5066 27.5288 54.6528 27.2213 54.8141C26.9869 54.9309 26.7812 54.9531 25.6744 54.9531H24.4056L24.0688 54.7406C23.8598 54.6098 23.6901 54.4249 23.5775 54.2056L23.4234 53.8756L23.44 39.1787L23.4609 24.4744L23.6878 24.1884C23.8053 24.0344 24.0547 23.8369 24.2303 23.7416C24.5309 23.5947 24.6484 23.58 25.9166 23.58C27.4125 23.58 27.6616 23.6384 28.05 24.0634C28.1603 24.1813 32.2291 30.3094 37.0969 37.6909C42.0256 45.1623 46.9572 52.6317 51.8919 60.0991L57.83 69.0934L58.13 68.8956C60.7919 67.1656 63.6066 64.7025 65.8353 62.1372C70.5787 56.6906 73.6363 50.0497 74.6625 42.9684C74.9628 40.9087 74.9994 40.2997 74.9994 37.5075C74.9994 34.7147 74.9619 34.1062 74.6625 32.0462C72.6244 17.965 62.6025 6.13406 49.0103 1.75094C46.6128 0.97375 44.0616 0.438438 41.2025 0.115937C40.6744 0.0609375 37.8159 0.00125 36.1634 0ZM48.8775 22.5531C49.9628 22.5531 50.1531 22.5697 50.3953 22.7C50.7475 22.8756 51.0328 23.2131 51.1359 23.5647C51.1941 23.7553 51.2091 27.8313 51.1941 37.0159L51.1731 50.1956L48.8494 46.6331L46.5178 43.0706V33.4894C46.5178 27.2956 46.5469 23.8134 46.5909 23.645C46.7081 23.2347 46.9647 22.9119 47.3169 22.7216C47.6172 22.5672 47.7262 22.5531 48.8775 22.5531Z" fill="white"/>
</g>
<defs>
<clipPath id="clip0_168_41">
<rect width="75" height="75" fill="white"/>
</clipPath>
</defs>
</svg>
