<svg width="67" height="75" viewBox="0 0 67 75" fill="none" xmlns="http://www.w3.org/2000/svg">
<g clip-path="url(#clip0_29_11)">
<path d="M33.1897 74.861C32.159 74.861 31.197 74.5859 30.3037 74.1045L21.1644 68.6713C19.7901 67.9148 20.4772 67.6397 20.8895 67.5022C22.7448 66.8832 23.0883 66.7457 25.0123 65.6451C25.2187 65.5075 25.4935 65.5763 25.6994 65.7139L32.7087 69.9092C32.9835 70.0467 33.3271 70.0467 33.5332 69.9092L60.951 54.0224C61.2258 53.8849 61.3633 53.6098 61.3633 53.2659V21.5607C61.3633 21.2168 61.2258 20.9417 60.951 20.8042L33.5332 4.98593C33.2584 4.84838 32.9148 4.84838 32.7087 4.98593L5.2909 20.8044C5.01605 20.942 4.87862 21.2858 4.87862 21.5609V53.2659C4.87862 53.541 5.01605 53.8849 5.2909 54.0224L12.7811 58.355C16.8355 60.4182 19.3776 58.0112 19.3776 55.6042V24.3115C19.3776 23.8989 19.7214 23.4863 20.2024 23.4863H23.707C24.1193 23.4863 24.5316 23.8301 24.5316 24.3115V55.6039C24.5316 61.0371 21.5766 64.2006 16.4229 64.2006C14.8425 64.2006 13.6057 64.2006 10.1013 62.4813L2.88594 58.355C1.09941 57.3232 0 55.3976 0 53.3345V21.6297C0 19.5665 1.09941 17.6409 2.88594 16.6091L30.3037 0.722346C32.0215 -0.240457 34.3578 -0.240457 36.0756 0.722346L63.4934 16.6091C65.2799 17.6407 66.3793 19.5663 66.3793 21.6297V53.3347C66.3793 55.3979 65.2799 57.3235 63.4934 58.355L36.0756 74.2423C35.1823 74.655 34.1516 74.8613 33.1897 74.8613V74.861ZM41.6416 53.0594C29.6163 53.0594 27.1427 47.5576 27.1427 42.8809C27.1427 42.4683 27.4862 42.0556 27.9672 42.0556H31.5403C31.9526 42.0556 32.2964 42.3307 32.2964 42.7434C32.8461 46.3883 34.4265 48.1766 41.7103 48.1766C47.4825 48.1766 49.9564 46.8699 49.9564 43.7752C49.9564 41.9869 49.2693 40.6802 40.2674 39.7859C32.7774 39.0294 28.1046 37.3789 28.1046 31.3958C28.1046 25.8248 32.7771 22.5237 40.6109 22.5237C49.4064 22.5237 53.7356 25.5497 54.2853 32.152C54.2853 32.3583 54.2166 32.5646 54.0792 32.771C53.9417 32.9085 53.7356 33.046 53.5295 33.046H49.9564C49.6126 33.046 49.2693 32.771 49.2003 32.4271C48.3757 28.6447 46.2456 27.4068 40.6109 27.4068C34.2893 27.4068 33.5332 29.6075 33.5332 31.258C33.5332 33.2526 34.4265 33.8713 42.9472 34.9717C51.3994 36.072 55.3847 37.654 55.3847 43.5686C55.316 49.6208 50.3687 53.0594 41.6416 53.0594Z" fill="#539E43"/>
</g>
<defs>
<clipPath id="clip0_29_11">
<rect width="66.3793" height="75" fill="white"/>
</clipPath>
</defs>
</svg>
