<svg width="75" height="75" viewBox="0 0 75 75" fill="none" xmlns="http://www.w3.org/2000/svg">
<path d="M49.2 49.05C51.375 48.825 53.025 46.95 52.95 44.7C52.875 42.45 51 40.65 48.75 40.65H48.6C46.275 40.725 44.475 42.675 44.55 45C44.625 46.125 45.075 47.1 45.75 47.775C43.2 52.8 39.3 56.475 33.45 59.55C29.475 61.65 25.35 62.4 21.225 61.875C17.85 61.425 15.225 59.925 13.575 57.45C11.175 53.775 10.95 49.8 12.975 45.825C14.4 42.975 16.65 40.875 18.075 39.825C17.775 38.85 17.325 37.2 17.1 36C6.22501 43.875 7.35001 54.525 10.65 59.55C13.125 63.3 18.15 65.625 23.7 65.625C25.2 65.625 26.7 65.475 28.2 65.1C37.8 63.225 45.075 57.525 49.2 49.05Z" fill="#593D88"/>
<path d="M62.4001 39.7499C56.7001 33.0749 48.3001 29.3999 38.7001 29.3999H37.5001C36.8251 28.0499 35.4001 27.1499 33.8251 27.1499H33.6751C31.3501 27.2249 29.5501 29.1749 29.6251 31.4999C29.7001 33.7499 31.5751 35.5499 33.8251 35.5499H33.9751C35.6251 35.4749 37.0501 34.4249 37.6501 32.9999H39.0001C44.7001 32.9999 50.1001 34.6499 54.9751 37.8749C58.7251 40.3499 61.4251 43.5749 62.9251 47.4749C64.2001 50.6249 64.1251 53.6999 62.7751 56.3249C60.6751 60.2999 57.1501 62.4749 52.5001 62.4749C49.5001 62.4749 46.6501 61.5749 45.1501 60.8999C44.3251 61.6499 42.8251 62.8499 41.7751 63.5999C45.0001 65.0999 48.3001 65.9249 51.4501 65.9249C58.6501 65.9249 63.9751 61.9499 66.0001 57.9749C68.1751 53.6249 68.0251 46.1249 62.4001 39.7499Z" fill="#593D88"/>
<path d="M24.3 50.3251C24.375 52.5751 26.25 54.3751 28.5 54.3751H28.65C30.975 54.3001 32.775 52.3501 32.7 50.0251C32.625 47.7751 30.75 45.9751 28.5 45.9751H28.35C28.2 45.9751 27.975 45.9751 27.825 46.0501C24.75 40.9501 23.475 35.4001 23.925 29.4001C24.225 24.9001 25.725 21.0001 28.35 17.7751C30.525 15.0001 34.725 13.6501 37.575 13.5751C45.525 13.4251 48.9 23.3251 49.125 27.3001C50.1 27.5251 51.75 28.0501 52.875 28.4251C51.975 16.2751 44.475 9.9751 37.275 9.9751C30.525 9.9751 24.3 14.8501 21.825 22.0501C18.375 31.6501 20.625 40.8751 24.825 48.1501C24.45 48.6751 24.225 49.5001 24.3 50.3251Z" fill="#593D88"/>
</svg>
