<svg width="75" height="75" viewBox="0 0 75 75" fill="none" xmlns="http://www.w3.org/2000/svg">
<path d="M37.9008 43.8281C36.7735 44.346 35.5383 45.021 33.0657 46.3781C32.1282 46.9054 31.1485 47.4328 30.2368 47.9296C30.1735 47.8663 30.1079 47.7867 30.0446 47.721C25.1532 42.4945 16.1063 38.8031 16.4907 31.7835C16.6337 29.2265 17.5126 22.514 33.8649 14.3624C47.3227 7.72963 58.0313 9.56713 59.8805 13.6429C62.5383 19.4531 54.1407 30.2648 40.2422 31.8328C38.704 32.1448 37.1153 32.1071 35.5936 31.7225C34.0719 31.3379 32.6561 30.6163 31.4508 29.6109C30.7149 28.8117 30.6047 28.7648 30.3329 28.9242C29.8852 29.1585 30.1735 29.8828 30.3329 30.2976C30.863 31.2575 31.5803 32.1013 32.4421 32.7792C33.304 33.4571 34.2931 33.9554 35.3508 34.2445C40.8202 35.4266 46.5228 34.8618 51.654 32.6296C60.0774 29.3695 66.654 20.3062 64.7274 12.7078C62.7938 5.00385 50.0063 2.46322 37.9079 6.76166C30.3312 9.31492 23.331 13.3343 17.3063 18.5906C10.6407 24.8249 9.58599 30.2437 10.0172 32.5124C11.5688 40.5679 22.6735 45.8109 27.1266 49.6945C26.8922 49.8234 26.6954 49.9288 26.5196 50.0296C24.2977 51.1335 15.8274 55.5609 13.7157 60.2437C11.318 65.5499 14.1001 69.3538 15.9376 69.8648C18.7067 70.5281 21.6138 70.31 24.253 69.2411C26.8922 68.1721 29.1316 66.3056 30.6587 63.9023C31.9554 61.9093 32.7517 59.6327 32.9798 57.266C33.2079 54.8993 32.8611 52.5125 31.9688 50.3085C32.4952 49.8886 33.0567 49.5146 33.6469 49.1906C34.7813 48.5203 35.8618 47.8593 36.8204 47.3484C40.1025 45.811 43.6843 45.0194 47.3087 45.0304C54.9165 45.9257 56.4188 50.6718 56.1305 52.671C55.9957 53.3803 55.7104 54.0525 55.294 54.6424C54.8776 55.2322 54.3397 55.726 53.7165 56.0906C53.1891 56.4257 53.0133 56.5382 53.0602 56.7773C53.1235 57.1288 53.379 57.1124 53.8266 57.0492C54.9697 56.6879 55.9767 55.9893 56.7154 55.0452C57.4541 54.1012 57.89 52.9557 57.9657 51.7593C58.2001 47.0718 53.7305 41.9296 45.818 41.9765C43.4488 41.9806 41.1032 42.4479 38.9133 43.3523C38.5618 43.4976 38.2204 43.6538 37.8891 43.821L37.9008 43.8281ZM26.5922 62.2007C24.0657 64.9499 20.5501 65.9882 19.0313 65.1093C17.3907 64.1718 18.0399 60.1054 21.1407 57.1968C22.9772 55.5421 24.9621 54.0601 27.0704 52.7695C27.4383 52.5351 27.9821 52.2257 28.636 51.832L28.8118 51.7359L29.1962 51.5015C29.7492 53.3557 29.7995 55.3235 29.342 57.2035C28.8844 59.0834 27.9355 60.8081 26.5922 62.2007Z" fill="#CD6799"/>
</svg>
