<svg width="75" height="75" viewBox="0 0 75 75" fill="none" xmlns="http://www.w3.org/2000/svg">
<g clip-path="url(#clip0_170_78)">
<path d="M37.5032 15C27.5032 15 21.2532 20 18.7532 30C22.5032 25 26.8782 23.125 31.8782 24.375C34.7313 25.0875 36.7688 27.1562 39.0282 29.45C42.7063 33.1812 46.9594 37.5 56.2532 37.5C66.2532 37.5 72.5032 32.5 75.0032 22.5C71.2532 27.5 66.8782 29.375 61.8782 28.125C59.0251 27.4125 56.9876 25.3437 54.7282 23.05C51.0532 19.3187 46.8 15 37.5032 15ZM18.7532 37.5C8.75317 37.5 2.50317 42.5 0.00317383 52.5C3.75317 47.5 8.12817 45.625 13.1282 46.875C15.9813 47.5875 18.0188 49.6562 20.2782 51.95C23.9563 55.6812 28.2094 60 37.5032 60C47.5032 60 53.7532 55 56.2532 45C52.5032 50 48.1282 51.875 43.1282 50.625C40.275 49.9125 38.2375 47.8437 35.9782 45.55C32.3032 41.8187 28.05 37.5 18.7532 37.5Z" fill="#38B2AC"/>
</g>
<defs>
<clipPath id="clip0_170_78">
<rect width="75" height="75" fill="white"/>
</clipPath>
</defs>
</svg>
